<svg width="60" height="60" viewBox="0 0 60 60" fill="none" xmlns="http://www.w3.org/2000/svg">
<path d="M20.7582 31.7072V22.3326C20.396 21.7179 18.7406 19.7456 15.559 20.0274C12.3774 20.3091 11.2651 23.3315 11.0841 24.3305C10.903 25.3294 10.8254 27.3785 12.9206 29.0178C15.0158 30.657 14.6795 30.8875 15.3262 32.2451C15.9728 33.6026 17.111 34.1661 18.7923 33.8075C20.1374 33.5206 20.6633 32.2878 20.7582 31.7072Z" fill="#007AFF"/>
<path d="M28.5285 22.3018C28.7764 22.2813 29.9226 22.2933 30.4647 22.3018C30.6884 22.3188 31.0533 22.445 30.7228 22.8133C30.3924 23.1816 27.6078 26.7349 26.2568 28.4655C26.2052 28.5337 26.1329 28.711 26.2568 28.8747C26.4117 29.0793 31.4456 35.8823 31.6264 36.087C31.8071 36.2916 32.7364 37.5448 34.0272 37.7494C35.3179 37.954 35.7582 36.9923 35.7826 36.7263C35.8084 36.445 35.7826 35.9591 35.4212 35.6777C35.0598 35.3964 34.6726 35.422 34.2079 35.5499C33.7432 35.6777 33.6658 35.422 33.6658 35.2941C33.6658 35.1662 33.769 34.9105 33.769 34.7315C33.769 34.5524 33.4334 34.2967 33.4592 34.0153C33.4851 33.734 33.6399 33.7084 33.7432 33.7084C33.8465 33.7084 34.9823 33.6829 35.4212 33.7596C35.8601 33.8363 36.7636 34.1176 37.2283 34.9872C37.6929 35.8568 37.6929 36.2148 37.6155 37.1611C37.538 38.1074 36.5312 39.1049 35.6277 39.5141C34.7242 39.9233 32.9429 39.9233 31.2649 38.798C29.587 37.6726 28.3478 35.6522 28.1671 35.422C27.9864 35.1917 24.1141 29.7187 23.9334 29.7187C23.8663 29.7187 23.8277 29.7257 23.8043 29.7516V39.3862C23.8043 39.7252 23.527 40 23.1848 40H22.1005C21.7584 40 21.481 39.7252 21.481 39.3862V22.9156C21.481 22.5766 21.7584 22.3018 22.1005 22.3018H23.1848C23.527 22.3018 23.8043 22.5766 23.8043 22.9156V27.7238C23.9902 27.7238 26.5666 24.4501 27.8315 22.8133C27.9606 22.6513 28.2807 22.3222 28.5285 22.3018Z" fill="#007AFF"/>
<path d="M31.2908 24.2455C31.5759 24.2455 31.8071 24.4745 31.8071 24.757V27.8834C32.1983 27.5015 33.689 25.6031 34.4615 24.6021C34.5495 24.4916 34.7675 24.2672 34.9364 24.2532C35.1052 24.2393 35.8859 24.2474 36.2551 24.2532C36.4075 24.2648 36.6561 24.3509 36.431 24.6021C36.2059 24.8533 34.3092 27.2769 33.3889 28.4573C33.3537 28.5038 33.3045 28.6248 33.3889 28.7364C33.4944 28.876 36.3823 32.1366 36.5054 32.2762C36.5657 32.3444 36.681 32.5013 36.6603 32.5831C36.6345 32.6854 36.5571 32.7877 36.428 32.7877C36.2989 32.7877 35.0856 32.7877 34.9307 32.7366C34.7758 32.6854 34.5693 32.6854 34.1821 32.2762C34.0592 32.1194 31.9378 29.3232 31.8071 29.3122V32.2762C31.8071 32.5587 31.5759 32.7877 31.2908 32.7877H30.5163C30.2312 32.7877 30 32.5587 30 32.2762V24.757C30 24.4745 30.2312 24.2455 30.5163 24.2455H31.2908Z" fill="#007AFF"/>
<path d="M37.2283 24.757C37.2283 24.4745 37.4594 24.2455 37.7446 24.2455H38.519C38.8042 24.2455 39.0353 24.4745 39.0353 24.757V32.2762C39.0353 32.5587 38.8042 32.7877 38.519 32.7877H37.7446C37.4594 32.7877 37.2283 32.5587 37.2283 32.2762V24.757Z" fill="#007AFF"/>
<path fill-rule="evenodd" clip-rule="evenodd" d="M43.3723 24.2455C44.9406 24.2455 46.212 25.5051 46.212 27.0588C46.212 28.134 45.6032 29.0681 44.7085 29.5417C45.0642 30.1341 46.2245 32.1624 46.3324 32.2848C46.3926 32.353 46.4391 32.5013 46.4185 32.5831C46.3927 32.6854 46.3152 32.7877 46.1861 32.7877C46.0571 32.7877 44.8437 32.7877 44.6889 32.7366C44.534 32.6854 44.4307 32.5831 44.1984 32.1483C44.1131 31.9888 43.1768 30.1991 42.9136 29.8721H41.9266V32.2762C41.9266 32.5587 41.6955 32.7877 41.4103 32.7877H40.6359C40.3507 32.7877 40.1196 32.5587 40.1196 32.2762V24.757C40.1196 24.4745 40.3507 24.2455 40.6359 24.2455H43.3723ZM41.9266 28.2353H43.2174C43.8732 28.2353 44.4049 27.7086 44.4049 27.0588C44.4049 26.4091 43.8732 25.8824 43.2174 25.8824H41.9266V28.2353Z" fill="#007AFF"/>
<path d="M47.1929 24.757C47.1929 24.4745 47.4241 24.2455 47.7092 24.2455H48.4837C48.7688 24.2455 49 24.4745 49 24.757V32.2762C49 32.5587 48.7688 32.7877 48.4837 32.7877H47.7092C47.4241 32.7877 47.1929 32.5587 47.1929 32.2762V24.757Z" fill="#007AFF"/>
</svg>
